<svg width="533" height="141" viewBox="0 0 533 141" fill="none" xmlns="http://www.w3.org/2000/svg">
<path d="M25.4146 80.1682L50.6498 139.376H44.2177L37.7855 124.126H12.9361L6.43215 139.376H0L25.4146 80.1682ZM35.6325 119.138L25.3429 94.432L15.0891 119.138H35.6325Z" fill="#8D008F"/>
<path d="M79.5542 139.376H73.6513V82.8145H93.8179C95.6301 82.8145 97.3973 82.949 99.0928 83.2271C100.797 83.5052 102.367 84.0076 103.803 84.7432C106.503 86.0799 108.692 88.0804 110.369 90.7358C112.047 93.4001 112.881 96.522 112.881 100.101C112.881 102.676 112.477 105.009 111.67 107.099C110.863 109.189 109.831 110.992 108.566 112.49C107.301 113.988 105.875 115.164 104.269 116.007C102.663 116.85 101.057 117.353 99.4427 117.505C101.838 121.183 104.197 124.834 106.521 128.459C108.844 132.083 111.159 135.716 113.482 139.376H106.449C104.179 135.824 101.919 132.253 99.658 128.692C97.3973 125.121 95.1367 121.533 92.867 117.927V112.894C94.5805 112.894 95.944 112.858 96.9578 112.795C97.9625 112.732 99.0659 112.526 100.25 112.167C101.237 111.862 102.134 111.333 102.959 110.579C103.776 109.826 104.484 108.92 105.076 107.87C105.669 106.821 106.135 105.636 106.476 104.318C106.817 102.99 106.987 101.635 106.987 100.254C106.987 97.6075 106.485 95.3827 105.471 93.5796C104.457 91.7764 103.085 90.3859 101.345 89.3991C100.313 88.8429 99.1556 88.4482 97.8818 88.206C96.6079 87.9638 95.2533 87.8471 93.8179 87.8471H79.5542V139.376Z" fill="#8D008F"/>
<path d="M117.959 82.8145H152.766V87.8471H123.862V107.825H151.366V112.894H123.862V134.343H152.766V139.376H117.959V82.8145Z" fill="#8D008F"/>
<path d="M186.138 140.247C181.903 140.247 177.992 139.484 174.413 137.959C170.833 136.434 167.747 134.353 165.164 131.715C162.58 129.078 160.544 125.992 159.072 122.448C157.601 118.905 156.857 115.155 156.857 111.19C156.857 107.207 157.61 103.439 159.108 99.8955C160.606 96.352 162.679 93.266 165.316 90.6285C167.954 87.9911 171.049 85.9008 174.601 84.3489C178.154 82.7969 182.002 82.0254 186.138 82.0254C190.219 82.0254 193.969 82.752 197.378 84.1964C200.787 85.6496 203.81 87.6053 206.457 90.0813L202.904 94.1272C200.733 92.1625 198.266 90.4939 195.485 89.1304C192.713 87.7668 189.574 87.085 186.066 87.085C182.612 87.085 179.454 87.7399 176.593 89.0496C173.731 90.3594 171.273 92.1177 169.236 94.3066C167.191 96.5045 165.603 99.0612 164.473 101.986C163.334 104.91 162.768 107.978 162.768 111.181C162.768 114.437 163.352 117.505 164.509 120.394C165.666 123.283 167.281 125.821 169.353 128.019C171.416 130.217 173.883 131.958 176.745 133.24C179.607 134.523 182.747 135.169 186.147 135.169C189.681 135.169 192.812 134.523 195.548 133.24C198.284 131.958 200.733 130.379 202.904 128.513L206.233 132.487C203.532 134.963 200.509 136.874 197.154 138.219C193.79 139.574 190.121 140.247 186.138 140.247Z" fill="#8D008F"/>
<path d="M211.938 82.8145H232.105C233.917 82.8145 235.684 82.949 237.38 83.2271C239.084 83.5052 240.654 84.0076 242.089 84.7432C244.79 86.0799 246.978 88.0804 248.656 90.7358C250.334 93.4001 251.168 96.522 251.168 100.101C251.168 102.676 250.764 105.009 249.957 107.099C249.149 109.189 248.118 110.992 246.853 112.49C245.588 113.988 244.162 115.164 242.556 116.007C240.95 116.85 239.344 117.353 237.729 117.505C240.125 121.183 242.484 124.834 244.807 128.459C247.131 132.083 249.445 135.716 251.769 139.376H244.736C242.466 135.824 240.205 132.253 237.945 128.692C235.684 125.121 233.423 121.533 231.154 117.927H217.832V139.376H211.929V82.8145H211.938ZM231.952 112.894C233.136 112.894 234.231 112.858 235.244 112.795C236.249 112.732 237.353 112.526 238.537 112.167C239.524 111.862 240.421 111.333 241.246 110.579C242.062 109.826 242.771 108.92 243.363 107.87C243.955 106.821 244.422 105.636 244.763 104.318C245.104 102.99 245.274 101.635 245.274 100.254C245.274 97.6075 244.772 95.3827 243.758 93.5796C242.744 91.7764 241.372 90.3859 239.631 89.3991C238.6 88.8429 237.442 88.4482 236.168 88.206C234.895 87.9638 233.54 87.8471 232.105 87.8471H217.841V112.894H231.952Z" fill="#8D008F"/>
<path d="M275.954 140.094C274.115 140.022 272.348 139.744 270.662 139.259C268.544 138.703 266.607 137.914 264.857 136.891C263.108 135.868 261.583 134.622 260.3 133.141C259.017 131.661 258.057 130.019 257.421 128.207C256.963 126.871 256.658 125.399 256.497 123.803C256.335 122.197 256.254 120.564 256.254 118.904V82.8145H262.157V119.245C262.157 120.385 262.193 121.524 262.274 122.69C262.346 123.847 262.543 124.924 262.839 125.902C263.27 127.238 263.933 128.459 264.848 129.571C265.755 130.683 266.84 131.643 268.105 132.468C269.37 133.285 270.787 133.922 272.384 134.379C273.523 134.729 274.716 134.962 275.981 135.061V140.094H275.954ZM278.942 135.025C280.126 134.927 281.274 134.711 282.387 134.379C283.974 133.922 285.401 133.285 286.666 132.468C287.931 131.652 289.016 130.683 289.922 129.571C290.828 128.459 291.456 127.238 291.815 125.902C292.093 124.87 292.273 123.767 292.344 122.609C292.416 121.452 292.461 120.331 292.461 119.245V82.8145H298.328V118.833C298.328 120.501 298.265 122.116 298.14 123.695C298.014 125.274 297.727 126.727 297.269 128.064C296.641 129.876 295.682 131.536 294.39 133.016C293.107 134.505 291.582 135.779 289.832 136.837C288.083 137.896 286.145 138.703 284.028 139.259C282.414 139.717 280.727 139.986 278.96 140.094V135.025H278.942Z" fill="#8D008F"/>
<path d="M306.07 82.8145H311.973V139.376H306.07V82.8145Z" fill="#8D008F"/>
<path d="M330.928 87.8471H315.83V82.8145H351.849V87.8471H336.831V139.376H330.928V87.8471Z" fill="#8D008F"/>
<path d="M355.706 82.8145H390.513V87.8471H361.609V107.825H389.114V112.894H361.609V134.343H390.513V139.376H355.706V82.8145Z" fill="#8D008F"/>
<path d="M402.588 139.376H396.685V82.8145H416.852C418.664 82.8145 420.431 82.949 422.127 83.2271C423.831 83.5052 425.401 84.0076 426.837 84.7432C429.537 86.0799 431.726 88.0804 433.403 90.7358C435.081 93.4001 435.915 96.522 435.915 100.101C435.915 102.676 435.511 105.009 434.704 107.099C433.897 109.189 432.865 110.992 431.6 112.49C430.335 113.988 428.909 115.164 427.303 116.007C425.697 116.85 424.091 117.353 422.477 117.505C424.872 121.183 427.231 124.834 429.555 128.459C431.878 132.083 434.193 135.716 436.516 139.376H429.483C427.213 135.824 424.953 132.253 422.692 128.692C420.431 125.121 418.171 121.533 415.901 117.927V112.894C417.614 112.894 418.978 112.858 419.983 112.795C420.988 112.732 422.091 112.526 423.275 112.167C424.262 111.862 425.159 111.333 425.984 110.579C426.801 109.826 427.509 108.92 428.101 107.87C428.694 106.821 429.16 105.636 429.501 104.318C429.842 102.999 430.012 101.635 430.012 100.254C430.012 97.6075 429.51 95.3827 428.496 93.5796C427.482 91.7764 426.11 90.3859 424.37 89.3991C423.338 88.8429 422.181 88.4482 420.907 88.206C419.633 87.9638 418.278 87.8471 416.843 87.8471H402.579V139.376H402.588Z" fill="#8D008F"/>
<path fill-rule="evenodd" clip-rule="evenodd" d="M496.174 74.6626H514.94V76.9957H497.14L484.811 89.3168H455.207L444.11 100.422H433.455V98.0893H443.143L454.24 86.9837H483.845L496.174 74.6626Z" fill="url(#paint0_linear)"/>
<path d="M514.783 78.6242C516.329 78.6242 517.578 77.3672 517.578 75.8292C517.578 74.2828 516.321 73.0342 514.783 73.0342C513.237 73.0342 511.988 74.2911 511.988 75.8292C511.98 77.3755 513.237 78.6242 514.783 78.6242Z" fill="white"/>
<path d="M514.783 78.9963C513.038 78.9963 511.616 77.574 511.616 75.8292C511.616 74.0844 513.038 72.6621 514.783 72.6621C516.528 72.6621 517.95 74.0844 517.95 75.8292C517.95 77.574 516.528 78.9963 514.783 78.9963C513.03 78.9963 516.528 78.9963 514.783 78.9963ZM514.783 73.3981C513.444 73.3981 512.36 74.4896 512.36 75.8209C512.36 77.1606 513.452 78.2438 514.783 78.2438C516.123 78.2438 517.206 77.1523 517.206 75.8209C517.206 74.4896 516.123 73.3981 514.783 73.3981C513.444 73.3981 516.123 73.3981 514.783 73.3981Z" fill="#8D008F"/>
<path fill-rule="evenodd" clip-rule="evenodd" d="M482.659 88.3712L484.309 86.7219L498.108 100.529H529.825V102.862H497.141L482.659 88.3712Z" fill="url(#paint1_linear)"/>
<path d="M529.668 104.49C531.211 104.49 532.463 103.239 532.463 101.695C532.463 100.152 531.211 98.9001 529.668 98.9001C528.124 98.9001 526.873 100.152 526.873 101.695C526.873 103.239 528.124 104.49 529.668 104.49Z" fill="white"/>
<path d="M529.668 104.862C527.923 104.862 526.501 103.44 526.501 101.695C526.501 99.9504 527.923 98.5281 529.668 98.5281C531.413 98.5281 532.835 99.9504 532.835 101.695C532.835 103.44 531.413 104.862 529.668 104.862C527.915 104.862 531.413 104.862 529.668 104.862ZM529.668 99.2723C528.328 99.2723 527.245 100.364 527.245 101.695C527.245 103.035 528.336 104.118 529.668 104.118C531.007 104.118 532.091 103.027 532.091 101.695C532.091 100.356 530.999 99.2723 529.668 99.2723C528.328 99.2723 530.999 99.2723 529.668 99.2723Z" fill="#8D008F"/>
<path fill-rule="evenodd" clip-rule="evenodd" d="M444.563 110.898H489.467V113.232H445.522L440.304 118.4H422.292V116.067H439.345L444.563 110.898Z" fill="url(#paint2_linear)"/>
<path d="M489.308 114.86C490.867 114.86 492.13 113.609 492.13 112.065C492.13 110.521 490.867 109.27 489.308 109.27C487.75 109.27 486.486 110.521 486.486 112.065C486.486 113.609 487.75 114.86 489.308 114.86Z" fill="white"/>
<path d="M489.308 115.232C487.547 115.232 486.111 113.81 486.111 112.065C486.111 110.32 487.547 108.898 489.308 108.898C491.07 108.898 492.506 110.32 492.506 112.065C492.506 113.81 491.07 115.232 489.308 115.232C487.547 115.232 491.07 115.232 489.308 115.232ZM489.308 109.634C487.956 109.634 486.862 110.725 486.862 112.057C486.862 113.388 487.964 114.48 489.308 114.48C490.661 114.48 491.754 113.388 491.754 112.057C491.754 110.725 490.661 109.634 489.308 109.634C487.956 109.634 490.661 109.634 489.308 109.634Z" fill="#8D008F"/>
<path fill-rule="evenodd" clip-rule="evenodd" d="M439.502 118.058L441.152 116.408L448.542 123.798H458.982V126.131H447.576L439.502 118.058Z" fill="url(#paint3_linear)"/>
<path d="M458.825 127.76C460.372 127.76 461.62 126.503 461.62 124.965C461.62 123.418 460.363 122.17 458.825 122.17C457.279 122.17 456.03 123.427 456.03 124.965C456.03 126.511 457.279 127.76 458.825 127.76Z" fill="white"/>
<path d="M458.825 128.132C457.081 128.132 455.658 126.71 455.658 124.965C455.658 123.22 457.081 121.798 458.825 121.798C460.57 121.798 461.992 123.22 461.992 124.965C461.992 126.71 460.57 128.132 458.825 128.132C457.081 128.132 460.57 128.132 458.825 128.132ZM458.825 122.534C457.486 122.534 456.402 123.625 456.402 124.957C456.402 126.296 457.494 127.38 458.825 127.38C460.165 127.38 461.248 126.288 461.248 124.957C461.248 123.625 460.165 122.534 458.825 122.534C457.486 122.534 460.165 122.534 458.825 122.534Z" fill="#8D008F"/>
<path fill-rule="evenodd" clip-rule="evenodd" d="M494.131 128.404H525.715V130.737H495.098L486.448 139.389H433.491V137.056H485.482L494.131 128.404Z" fill="url(#paint4_linear)"/>
<path d="M525.558 132.374C527.104 132.374 528.353 131.117 528.353 129.579C528.353 128.033 527.096 126.784 525.558 126.784C524.011 126.784 522.763 128.041 522.763 129.579C522.763 131.117 524.011 132.374 525.558 132.374Z" fill="white"/>
<path d="M525.558 132.746C523.813 132.746 522.391 131.324 522.391 129.579C522.391 127.834 523.813 126.412 525.558 126.412C527.303 126.412 528.725 127.834 528.725 129.579C528.725 131.324 527.303 132.746 525.558 132.746C523.813 132.746 527.303 132.746 525.558 132.746ZM525.558 127.148C524.218 127.148 523.135 128.24 523.135 129.571C523.135 130.911 524.226 131.994 525.558 131.994C526.897 131.994 527.981 130.902 527.981 129.571C527.981 128.231 526.897 127.148 525.558 127.148C524.218 127.148 526.897 127.148 525.558 127.148Z" fill="#8D008F"/>
<path fill-rule="evenodd" clip-rule="evenodd" d="M495.398 66.8127H514.164V64.4796H496.364L484.034 52.1585H454.431L443.334 41.053H431.315V43.3861H442.367L453.464 54.4916H483.068L495.398 66.8127Z" fill="url(#paint5_linear)"/>
<path d="M514.007 62.8512C515.553 62.8512 516.802 64.1081 516.802 65.6462C516.802 67.1925 515.545 68.4412 514.007 68.4412C512.461 68.4412 511.212 67.1842 511.212 65.6462C511.204 64.0998 512.461 62.8512 514.007 62.8512Z" fill="white"/>
<path d="M514.007 62.4793C512.262 62.4793 510.84 63.9016 510.84 65.6464C510.84 67.3912 512.262 68.8135 514.007 68.8135C515.752 68.8135 517.174 67.3912 517.174 65.6464C517.174 63.9016 515.752 62.4793 514.007 62.4793C512.254 62.4793 515.752 62.4793 514.007 62.4793ZM514.007 68.0775C512.667 68.0775 511.584 66.986 511.584 65.6546C511.584 64.315 512.676 63.2318 514.007 63.2318C515.347 63.2318 516.43 64.3233 516.43 65.6546C516.43 66.986 515.347 68.0775 514.007 68.0775C512.667 68.0775 515.347 68.0775 514.007 68.0775Z" fill="#8D008F"/>
<path fill-rule="evenodd" clip-rule="evenodd" d="M482.659 52.2836L484.309 53.9329L498.108 40.1262H529.825V37.793H497.141L482.659 52.2836Z" fill="url(#paint6_linear)"/>
<path d="M529.668 36.1644C531.211 36.1644 532.463 37.4158 532.463 38.9594C532.463 40.503 531.211 41.7544 529.668 41.7544C528.124 41.7544 526.873 40.503 526.873 38.9594C526.873 37.4158 528.124 36.1644 529.668 36.1644Z" fill="white"/>
<path d="M529.668 35.7925C527.923 35.7925 526.501 37.2148 526.501 38.9596C526.501 40.7044 527.923 42.1267 529.668 42.1267C531.413 42.1267 532.835 40.7044 532.835 38.9596C532.835 37.2148 531.413 35.7925 529.668 35.7925C527.915 35.7925 531.413 35.7925 529.668 35.7925ZM529.668 41.3825C528.328 41.3825 527.245 40.2909 527.245 38.9596C527.245 37.62 528.336 36.5367 529.668 36.5367C531.007 36.5367 532.091 37.6283 532.091 38.9596C532.091 40.2992 530.999 41.3825 529.668 41.3825C528.328 41.3825 530.999 41.3825 529.668 41.3825Z" fill="#8D008F"/>
<path fill-rule="evenodd" clip-rule="evenodd" d="M442.763 23.23H487.667V20.8969H443.723L438.505 15.7286H431.691V18.0617H437.545L442.763 23.23Z" fill="url(#paint7_linear)"/>
<path d="M487.508 19.2684C489.067 19.2684 490.33 20.5198 490.33 22.0634C490.33 23.607 489.067 24.8584 487.508 24.8584C485.95 24.8584 484.686 23.607 484.686 22.0634C484.686 20.5198 485.95 19.2684 487.508 19.2684Z" fill="white"/>
<path d="M487.508 18.8962C485.747 18.8962 484.311 20.3186 484.311 22.0634C484.311 23.8082 485.747 25.2305 487.508 25.2305C489.27 25.2305 490.706 23.8082 490.706 22.0634C490.706 20.3186 489.27 18.8962 487.508 18.8962C485.747 18.8962 489.27 18.8962 487.508 18.8962ZM487.508 24.4945C486.156 24.4945 485.062 23.403 485.062 22.0716C485.062 20.7403 486.164 19.6488 487.508 19.6488C488.861 19.6488 489.955 20.7403 489.955 22.0716C489.955 23.403 488.861 24.4945 487.508 24.4945C486.156 24.4945 488.861 24.4945 487.508 24.4945Z" fill="#8D008F"/>
<path fill-rule="evenodd" clip-rule="evenodd" d="M437.189 16.0033L438.838 17.6531L446.228 10.263H456.669V7.92994H445.262L437.189 16.0033Z" fill="url(#paint8_linear)"/>
<path d="M456.512 6.30137C458.058 6.30137 459.307 7.5583 459.307 9.09637C459.307 10.6427 458.05 11.8914 456.512 11.8914C454.966 11.8914 453.717 10.6344 453.717 9.09637C453.717 7.55003 454.966 6.30137 456.512 6.30137Z" fill="white"/>
<path d="M456.512 5.92921C454.767 5.92921 453.345 7.35151 453.345 9.09632C453.345 10.8411 454.767 12.2634 456.512 12.2634C458.257 12.2634 459.679 10.8411 459.679 9.09632C459.679 7.35151 458.257 5.92921 456.512 5.92921C454.767 5.92921 458.257 5.92921 456.512 5.92921ZM456.512 11.5275C455.172 11.5275 454.089 10.4359 454.089 9.10458C454.089 7.76497 455.181 6.68171 456.512 6.68171C457.852 6.68171 458.935 7.77324 458.935 9.10458C458.935 10.4359 457.852 11.5275 456.512 11.5275C455.172 11.5275 457.852 11.5275 456.512 11.5275Z" fill="#8D008F"/>
<path fill-rule="evenodd" clip-rule="evenodd" d="M493.658 11.5537H525.242V9.22061H494.625L485.975 0.569097L407.942 0.427037L407.944 2.88516L485.009 2.9022L493.658 11.5537Z" fill="url(#paint9_linear)"/>
<path d="M525.085 7.58409C526.631 7.58409 527.88 8.84101 527.88 10.3791C527.88 11.9254 526.623 13.1741 525.085 13.1741C523.538 13.1741 522.29 11.9172 522.29 10.3791C522.29 8.84101 523.538 7.58409 525.085 7.58409Z" fill="white"/>
<path d="M525.085 7.21168C523.34 7.21168 521.918 8.63399 521.918 10.3788C521.918 12.1236 523.34 13.5459 525.085 13.5459C526.83 13.5459 528.252 12.1236 528.252 10.3788C528.252 8.63399 526.83 7.21168 525.085 7.21168C523.34 7.21168 526.83 7.21168 525.085 7.21168ZM525.085 12.8099C523.745 12.8099 522.662 11.7184 522.662 10.3871C522.662 9.04744 523.753 7.96418 525.085 7.96418C526.424 7.96418 527.508 9.05571 527.508 10.3871C527.508 11.7267 526.424 12.8099 525.085 12.8099C523.745 12.8099 526.424 12.8099 525.085 12.8099Z" fill="#8D008F"/>
<path d="M126.454 1.13428H142.423C143.454 1.13428 144.71 1.1881 146.19 1.28678C147.671 1.38546 149.07 1.56488 150.407 1.81607C153.511 2.39918 156.417 3.4398 159.126 4.93795C161.836 6.43609 164.204 8.37381 166.222 10.7421C168.241 13.1105 169.829 15.8645 170.986 18.9864C172.143 22.1173 172.726 25.5531 172.726 29.3119C172.726 32.8465 172.197 36.1029 171.138 39.0903C170.08 42.0776 168.627 44.7688 166.77 47.1461C164.913 49.5324 162.706 51.5509 160.149 53.2015C157.592 54.8522 154.829 56.0543 151.887 56.8168C150.55 57.1936 149.115 57.4358 147.59 57.5345C146.065 57.6331 144.396 57.687 142.575 57.687H126.454V1.13428ZM142.27 52.6633C143.885 52.6633 145.383 52.6094 146.773 52.5108C148.164 52.4121 149.447 52.1968 150.631 51.8648C153.026 51.2638 155.215 50.2591 157.198 48.8596C159.18 47.4601 160.876 45.7915 162.302 43.8628C163.728 41.934 164.841 39.7541 165.63 37.314C166.429 34.8829 166.823 32.2723 166.823 29.5003C166.823 26.4502 166.411 23.6513 165.594 21.1215C164.778 18.5827 163.612 16.349 162.114 14.4023C160.616 12.4646 158.812 10.8498 156.722 9.55797C154.632 8.27513 152.317 7.34216 149.797 6.75905C148.711 6.50786 147.473 6.34638 146.074 6.26565C144.674 6.19388 143.409 6.14902 142.27 6.14902H132.357V52.6453H142.27V52.6633Z" fill="#8D008F"/>
<path d="M177.831 1.13428H212.638V6.16696H183.734V26.1452H211.239V31.2138H183.734V52.6633H212.638V57.6959H177.831V1.13428Z" fill="#8D008F"/>
<path d="M265.226 58.5662C260.991 58.5662 257.08 57.8037 253.501 56.2786C249.921 54.7536 246.835 52.6723 244.252 50.0348C241.668 47.3974 239.632 44.3114 238.16 40.7679C236.689 37.2244 235.945 33.4745 235.945 29.5094C235.945 25.5263 236.698 21.7585 238.196 18.215C239.694 14.6715 241.767 11.5855 244.404 8.94802C247.042 6.31057 250.137 4.22035 253.689 2.66838C257.242 1.10744 261.09 0.335938 265.226 0.335938C269.307 0.335938 273.057 1.06258 276.466 2.5069C279.866 3.96019 282.898 5.91585 285.545 8.39183L281.992 12.4377C279.821 10.4731 277.354 8.80449 274.573 7.44091C271.801 6.07733 268.662 5.39554 265.154 5.39554C261.7 5.39554 258.542 6.05041 255.681 7.36017C252.819 8.66992 250.361 10.4282 248.324 12.6171C246.279 14.815 244.691 17.3717 243.561 20.2962C242.422 23.2208 241.856 26.2888 241.856 29.4914C241.856 32.7479 242.44 35.8159 243.597 38.7046C244.754 41.5932 246.369 44.132 248.441 46.3299C250.504 48.5277 252.971 50.2681 255.833 51.5509C258.695 52.8338 261.835 53.4797 265.235 53.4797C268.769 53.4797 271.9 52.8338 274.636 51.5509C277.372 50.2681 279.821 48.6892 281.992 46.8233L285.321 50.7974C282.62 53.2734 279.597 55.1842 276.242 56.5298C272.887 57.8844 269.209 58.5662 265.226 58.5662Z" fill="#8D008F"/>
<path d="M291.035 1.13428H325.842V6.16696H296.938V26.1452H324.442V31.2138H296.938V52.6633H325.842V57.6959H291.035V1.13428Z" fill="#8D008F"/>
<path d="M337.908 57.6959H332.005V1.13428H352.171C353.984 1.13428 355.751 1.26884 357.446 1.54694C359.151 1.82504 360.721 2.32741 362.156 3.06303C364.856 4.39969 367.045 6.40021 368.723 9.0556C370.4 11.72 371.235 14.8418 371.235 18.4212C371.235 20.9959 370.831 23.3283 370.024 25.4186C369.216 27.5088 368.185 29.3119 366.92 30.8101C365.655 32.3082 364.228 33.4834 362.623 34.3267C361.017 35.17 359.411 35.6723 357.796 35.8248C360.192 39.5029 362.551 43.1541 364.874 46.7783C367.198 50.4026 369.512 54.0358 371.836 57.6959H364.803C362.533 54.1435 360.272 50.573 358.012 47.0116C355.751 43.4501 353.49 39.8528 351.221 36.2465V31.2138C352.934 31.2138 354.298 31.1779 355.311 31.1151C356.316 31.0523 357.419 30.846 358.604 30.4871C359.59 30.1821 360.488 29.6528 361.313 28.8993C362.129 28.1457 362.838 27.2397 363.43 26.1901C364.022 25.1405 364.489 23.9563 364.829 22.6376C365.17 21.3189 365.341 19.9553 365.341 18.5737C365.341 15.9273 364.838 13.7025 363.825 11.8994C362.811 10.0962 361.438 8.70573 359.698 7.71893C358.666 7.16274 357.509 6.76802 356.235 6.5258C354.961 6.28359 353.607 6.16696 352.171 6.16696H337.908V57.6959Z" fill="#8D008F"/>
<path fill-rule="evenodd" clip-rule="evenodd" d="M405.72 40.932C412.292 40.932 417.619 35.6047 417.619 29.0332C417.619 22.4617 412.292 17.1344 405.72 17.1344C399.149 17.1344 393.821 22.4617 393.821 29.0332C393.821 35.6047 399.149 40.932 405.72 40.932ZM405.72 43.2651C413.58 43.2651 419.952 36.8933 419.952 29.0332C419.952 21.1731 413.58 14.8013 405.72 14.8013C397.86 14.8013 391.488 21.1731 391.488 29.0332C391.488 36.8933 397.86 43.2651 405.72 43.2651Z" fill="#676BFF"/>
<path fill-rule="evenodd" clip-rule="evenodd" d="M410.238 46.9071C408.792 47.2713 407.279 47.4647 405.72 47.4647C395.541 47.4647 387.289 39.2126 387.289 29.0332C387.289 18.8537 395.541 10.6017 405.72 10.6017C408.045 10.6017 410.269 11.032 412.317 11.8172L413.534 9.78884C411.122 8.80857 408.484 8.26855 405.72 8.26855C394.252 8.26855 384.956 17.5652 384.956 29.0332C384.956 40.5012 394.252 49.7978 405.72 49.7978C407.6 49.7978 409.421 49.5481 411.152 49.08L410.238 46.9071ZM415.533 44.6385L416.627 46.706C421.266 43.8372 424.69 39.1934 425.953 33.7225L423.669 33.2417C422.552 38.0263 419.57 42.0942 415.533 44.6385ZM424.005 26.7001H426.355C425.715 20.9764 422.749 15.9558 418.423 12.606L417.213 14.6226C420.869 17.5424 423.39 21.8245 424.005 26.7001Z" fill="#676BFF"/>
<path fill-rule="evenodd" clip-rule="evenodd" d="M396.087 7.2884C398.302 6.25675 400.707 5.61981 403.308 5.39554H403.317V0.335938C400.115 0.569181 397.055 1.29583 394.158 2.53381C390.605 4.07681 387.51 6.15807 384.873 8.79552C382.235 11.433 380.145 14.519 378.593 18.0625C377.041 21.606 376.27 25.3917 376.27 29.4286C376.27 33.5463 377.032 37.3589 378.557 40.8755C380.082 44.3921 382.164 47.4602 384.801 50.0707C387.43 52.6813 390.534 54.7177 394.086 56.1799C396.984 57.3641 400.061 58.0728 403.317 58.2971V53.2644C400.716 53.0311 398.293 52.4211 396.051 51.4074C393.198 50.1156 390.758 48.3932 388.712 46.2222C386.667 44.0512 385.061 41.5214 383.904 38.6328C382.747 35.7442 382.164 32.6761 382.164 29.4197C382.164 26.217 382.747 23.149 383.904 20.2245C385.07 17.2999 386.667 14.7432 388.712 12.5454C390.749 10.3565 393.207 8.59816 396.087 7.2884Z" fill="#8D008F"/>
<path fill-rule="evenodd" clip-rule="evenodd" d="M426.757 39.8801L431.314 43.3854C431.801 42.5097 432.251 41.602 432.662 40.662C434.214 37.1185 434.986 33.3328 434.986 29.2959C434.986 25.1782 434.223 21.3656 432.698 17.849C432.384 17.1251 432.047 16.4202 431.686 15.7344L426.485 18.1615C426.632 18.4564 426.775 18.7555 426.912 19.0587C427.065 19.3979 427.212 19.7421 427.352 20.0918C428.509 22.9803 429.092 26.0485 429.092 29.3049C429.092 32.5074 428.509 35.5756 427.352 38.5C427.164 38.9695 426.966 39.4295 426.757 39.8801ZM417.17 2.5446C420.172 3.78064 422.855 5.4268 425.2 7.48331L421.353 11.3304C419.57 9.70169 417.524 8.36722 415.205 7.3171C412.962 6.30343 410.54 5.69338 407.938 5.46018V0.42749C411.195 0.651801 414.272 1.3605 417.17 2.5446Z" fill="#8D008F"/>
<path fill-rule="evenodd" clip-rule="evenodd" d="M417.17 56.18C420.172 54.944 422.855 53.2978 425.2 51.2413L421.353 47.3942C419.57 49.0229 417.524 50.3574 415.205 51.4075C412.962 52.4212 410.54 53.0312 407.938 53.2644V58.2971C411.195 58.0728 414.272 57.3641 417.17 56.18Z" fill="#8D008F"/>
<path fill-rule="evenodd" clip-rule="evenodd" d="M453.683 30.0295H474.925V32.8293H454.842L444.495 43.1766L442.515 41.1969L453.683 30.0295Z" fill="url(#paint10_linear)"/>
<path d="M476.507 28.6344C478.051 28.6344 479.302 29.8857 479.302 31.4294C479.302 32.973 478.051 34.2244 476.507 34.2244C474.963 34.2244 473.712 32.973 473.712 31.4294C473.712 29.8857 474.963 28.6344 476.507 28.6344Z" fill="white"/>
<path d="M476.507 28.2622C474.762 28.2622 473.34 29.6845 473.34 31.4293C473.34 33.1741 474.762 34.5964 476.507 34.5964C478.252 34.5964 479.674 33.1741 479.674 31.4293C479.674 29.6845 478.252 28.2622 476.507 28.2622C474.754 28.2622 478.252 28.2622 476.507 28.2622ZM476.507 33.8522C475.168 33.8522 474.084 32.7607 474.084 31.4293C474.084 30.0897 475.176 29.0065 476.507 29.0065C477.847 29.0065 478.93 30.098 478.93 31.4293C478.93 32.7689 477.839 33.8522 476.507 33.8522C475.168 33.8522 477.839 33.8522 476.507 33.8522Z" fill="#8D008F"/>
<defs>
<linearGradient id="paint0_linear" x1="432.628" y1="99.1235" x2="531.991" y2="75.8952" gradientUnits="userSpaceOnUse">
<stop stop-color="#8D008F"/>
<stop offset="1" stop-color="#676BFF"/>
</linearGradient>
<linearGradient id="paint1_linear" x1="483.765" y1="88.7207" x2="541.65" y2="101.538" gradientUnits="userSpaceOnUse">
<stop stop-color="#793ACB"/>
<stop offset="1" stop-color="#676BFF"/>
</linearGradient>
<linearGradient id="paint2_linear" x1="423.703" y1="117.316" x2="514.283" y2="112.259" gradientUnits="userSpaceOnUse">
<stop stop-color="#8D008F"/>
<stop offset="1" stop-color="#676BFF"/>
</linearGradient>
<linearGradient id="paint3_linear" x1="438.003" y1="116.075" x2="466.119" y2="127.652" gradientUnits="userSpaceOnUse">
<stop stop-color="#8711A1"/>
<stop offset="1" stop-color="#676BFF"/>
</linearGradient>
<linearGradient id="paint4_linear" x1="431.388" y1="136.93" x2="555.013" y2="129.902" gradientUnits="userSpaceOnUse">
<stop stop-color="#8D008F"/>
<stop offset="1" stop-color="#676BFF"/>
</linearGradient>
<linearGradient id="paint5_linear" x1="431.852" y1="42.3519" x2="531.215" y2="65.5802" gradientUnits="userSpaceOnUse">
<stop stop-color="#8D008F"/>
<stop offset="1" stop-color="#676BFF"/>
</linearGradient>
<linearGradient id="paint6_linear" x1="483.765" y1="51.9341" x2="541.65" y2="39.1168" gradientUnits="userSpaceOnUse">
<stop stop-color="#793ACB"/>
<stop offset="1" stop-color="#676BFF"/>
</linearGradient>
<linearGradient id="paint7_linear" x1="431.32" y1="16.2219" x2="512.482" y2="21.8598" gradientUnits="userSpaceOnUse">
<stop stop-color="#8D008F"/>
<stop offset="1" stop-color="#676BFF"/>
</linearGradient>
<linearGradient id="paint8_linear" x1="438.287" y1="16.8106" x2="463.805" y2="6.40891" gradientUnits="userSpaceOnUse">
<stop stop-color="#8A0898"/>
<stop offset="1" stop-color="#676BFF"/>
</linearGradient>
<linearGradient id="paint9_linear" x1="430.915" y1="3.0279" x2="554.54" y2="10.0567" gradientUnits="userSpaceOnUse">
<stop stop-color="#8D008F"/>
<stop offset="1" stop-color="#676BFF"/>
</linearGradient>
<linearGradient id="paint10_linear" x1="444.205" y1="42.1867" x2="477.363" y2="32.5111" gradientUnits="userSpaceOnUse">
<stop stop-color="#890C9B"/>
<stop offset="1" stop-color="#793ACC"/>
</linearGradient>
</defs>
</svg>
