<svg width="271" height="72" viewBox="0 0 271 72" fill="none" xmlns="http://www.w3.org/2000/svg">
<path d="M12.9058 40.5398L25.7205 70.6063H22.4542L19.1879 62.8619H6.56908L3.26632 70.6063H0L12.9058 40.5398ZM18.0946 60.329L12.8694 47.7831L7.66241 60.329H18.0946Z" fill="#8D008F"/>
<path d="M40.3985 70.6064H37.4009V41.8838H47.6418C48.562 41.8838 49.4594 41.9521 50.3204 42.0933C51.186 42.2346 51.9832 42.4897 52.7121 42.8632C54.0833 43.542 55.1949 44.5579 56.0467 45.9063C56.8986 47.2593 57.3223 48.8446 57.3223 50.6623C57.3223 51.9697 57.1173 53.1542 56.7073 54.2156C56.2973 55.2771 55.7734 56.1927 55.1311 56.9535C54.4887 57.7143 53.7644 58.311 52.949 58.7393C52.1335 59.1675 51.3181 59.4226 50.4981 59.5C51.7144 61.3678 52.9125 63.2219 54.0924 65.0623C55.2723 66.9028 56.4476 68.7478 57.6275 70.6064H54.056C52.9034 68.8024 51.7554 66.9893 50.6074 65.1808C49.4594 63.3677 48.3114 61.5455 47.1589 59.7141V57.1585C48.029 57.1585 48.7214 57.1403 49.2362 57.1084C49.7464 57.0765 50.3068 56.9717 50.9081 56.7895C51.4092 56.6346 51.8648 56.3658 52.2839 55.9832C52.6984 55.6005 53.0583 55.1404 53.359 54.6074C53.6596 54.0744 53.8965 53.4731 54.0696 52.8034C54.2427 52.1292 54.3293 51.4413 54.3293 50.7397C54.3293 49.3959 54.0742 48.2661 53.5594 47.3504C53.0446 46.4348 52.3476 45.7287 51.4639 45.2275C50.94 44.9451 50.3523 44.7447 49.7054 44.6217C49.0585 44.4987 48.3707 44.4394 47.6418 44.4394H40.3985V70.6064Z" fill="#8D008F"/>
<path d="M59.9008 41.8838H77.5762V44.4394H62.8983V54.5846H76.8656V57.1585H62.8983V68.0508H77.5762V70.6064H59.9008V41.8838Z" fill="#8D008F"/>
<path d="M94.5228 71.0483C92.3725 71.0483 90.3863 70.6611 88.5687 69.8867C86.751 69.1122 85.1839 68.0553 83.8719 66.716C82.5599 65.3767 81.5258 63.8096 80.7787 62.0101C80.0316 60.2107 79.6535 58.3065 79.6535 56.2929C79.6535 54.2703 80.0362 52.357 80.7969 50.5575C81.5577 48.7581 82.61 47.191 83.9494 45.8517C85.2887 44.5123 86.8604 43.4509 88.6643 42.6628C90.4683 41.8747 92.4227 41.4829 94.5228 41.4829C96.5955 41.4829 98.4997 41.8519 100.231 42.5854C101.962 43.3233 103.497 44.3165 104.841 45.5738L103.037 47.6283C101.935 46.6307 100.682 45.7833 99.2696 45.0909C97.862 44.3985 96.2675 44.0522 94.4863 44.0522C92.7324 44.0522 91.1289 44.3848 89.6757 45.0499C88.2225 45.715 86.9742 46.6079 85.9401 47.7194C84.9015 48.8355 84.0951 50.1339 83.5212 51.619C82.9426 53.1041 82.6556 54.6621 82.6556 56.2884C82.6556 57.942 82.9517 59.5 83.5394 60.9669C84.127 62.4338 84.947 63.723 85.9994 64.8391C87.0471 65.9552 88.2999 66.839 89.7531 67.4904C91.2063 68.1419 92.8008 68.4699 94.5273 68.4699C96.3222 68.4699 97.9121 68.1419 99.3015 67.4904C100.691 66.839 101.935 66.0372 103.037 65.0897L104.727 67.1078C103.356 68.3651 101.821 69.3354 100.117 70.0188C98.4086 70.7067 96.5454 71.0483 94.5228 71.0483Z" fill="#8D008F"/>
<path d="M107.624 41.8838H117.865C118.785 41.8838 119.683 41.9521 120.544 42.0933C121.409 42.2346 122.207 42.4897 122.936 42.8632C124.307 43.542 125.418 44.5579 126.27 45.9063C127.122 47.2593 127.546 48.8446 127.546 50.6623C127.546 51.9697 127.341 53.1542 126.931 54.2156C126.521 55.2771 125.997 56.1927 125.355 56.9535C124.712 57.7143 123.988 58.311 123.172 58.7393C122.357 59.1675 121.542 59.4226 120.722 59.5C121.938 61.3678 123.136 63.2219 124.316 65.0623C125.496 66.9028 126.671 68.7478 127.851 70.6064H124.279C123.127 68.8024 121.979 66.9893 120.831 65.1808C119.683 63.3677 118.535 61.5455 117.382 59.7141H110.617V70.6064H107.62V41.8838H107.624ZM117.788 57.1585C118.389 57.1585 118.945 57.1403 119.46 57.1084C119.97 57.0765 120.53 56.9717 121.132 56.7895C121.633 56.6346 122.088 56.3658 122.507 55.9832C122.922 55.6005 123.282 55.1404 123.582 54.6074C123.883 54.0744 124.12 53.4731 124.293 52.8034C124.466 52.1292 124.553 51.4413 124.553 50.7397C124.553 49.3959 124.298 48.2661 123.783 47.3504C123.268 46.4348 122.571 45.7287 121.687 45.2275C121.163 44.9451 120.576 44.7447 119.929 44.6217C119.282 44.4987 118.594 44.4394 117.865 44.4394H110.622V57.1585H117.788Z" fill="#8D008F"/>
<path d="M140.133 70.9709C139.199 70.9344 138.301 70.7932 137.445 70.5472C136.37 70.2648 135.386 69.8639 134.498 69.3445C133.609 68.8252 132.835 68.192 132.183 67.4403C131.532 66.6887 131.044 65.855 130.721 64.9348C130.489 64.256 130.334 63.5089 130.252 62.698C130.17 61.8826 130.129 61.0535 130.129 60.2107V41.8838H133.126V60.3838C133.126 60.9624 133.145 61.5409 133.186 62.1331C133.222 62.7208 133.322 63.2675 133.473 63.764C133.691 64.4428 134.028 65.0623 134.493 65.6272C134.953 66.1921 135.504 66.6796 136.147 67.0987C136.789 67.5132 137.509 67.8367 138.32 68.069C138.898 68.2467 139.504 68.3651 140.146 68.4152V70.9709H140.133ZM141.65 68.397C142.251 68.3469 142.834 68.2375 143.399 68.069C144.205 67.8367 144.93 67.5132 145.572 67.0987C146.214 66.6841 146.766 66.1921 147.226 65.6272C147.686 65.0623 148.005 64.4428 148.187 63.764C148.328 63.2401 148.419 62.6798 148.456 62.0921C148.492 61.5045 148.515 60.935 148.515 60.3838V41.8838H151.494V60.1743C151.494 61.0216 151.462 61.8416 151.399 62.6433C151.335 63.4451 151.189 64.1831 150.957 64.8619C150.638 65.7821 150.15 66.6249 149.494 67.3765C148.843 68.1328 148.068 68.7797 147.18 69.3172C146.292 69.8548 145.308 70.2648 144.233 70.5472C143.413 70.7795 142.556 70.9162 141.659 70.9709V68.397H141.65Z" fill="#8D008F"/>
<path d="M155.426 41.8838H158.423V70.6064H155.426V41.8838Z" fill="#8D008F"/>
<path d="M168.049 44.4394H160.382V41.8838H178.673V44.4394H171.047V70.6064H168.049V44.4394Z" fill="#8D008F"/>
<path d="M180.631 41.8838H198.307V44.4394H183.629V54.5846H197.596V57.1585H183.629V68.0508H198.307V70.6064H180.631V41.8838Z" fill="#8D008F"/>
<path d="M204.439 70.6064H201.441V41.8838H211.682C212.602 41.8838 213.5 41.9521 214.361 42.0933C215.226 42.2346 216.023 42.4897 216.752 42.8632C218.124 43.542 219.235 44.5579 220.087 45.9063C220.939 47.2593 221.362 48.8446 221.362 50.6623C221.362 51.9697 221.158 53.1542 220.748 54.2156C220.338 55.2771 219.814 56.1927 219.171 56.9535C218.529 57.7143 217.805 58.311 216.989 58.7393C216.174 59.1675 215.358 59.4226 214.538 59.5C215.755 61.3678 216.953 63.2219 218.133 65.0623C219.313 66.9028 220.488 68.7478 221.668 70.6064H218.096C216.944 68.8024 215.796 66.9893 214.648 65.1808C213.5 63.3677 212.352 61.5455 211.199 59.7141V57.1585C212.069 57.1585 212.762 57.1403 213.272 57.1084C213.782 57.0765 214.342 56.9717 214.944 56.7895C215.445 56.6346 215.9 56.3658 216.32 55.9832C216.734 55.6005 217.094 55.1404 217.395 54.6074C217.695 54.0744 217.932 53.4731 218.105 52.8034C218.278 52.1337 218.365 51.4413 218.365 50.7397C218.365 49.3959 218.11 48.2661 217.595 47.3504C217.08 46.4348 216.383 45.7287 215.5 45.2275C214.976 44.9451 214.388 44.7447 213.741 44.6217C213.094 44.4987 212.406 44.4394 211.677 44.4394H204.434V70.6064H204.439Z" fill="#8D008F"/>
<path fill-rule="evenodd" clip-rule="evenodd" d="M251.963 37.7441H261.492V38.9289H252.453L246.192 45.1857H231.159L225.524 50.8252H220.113V49.6405H225.033L230.668 44.0009H245.702L251.963 37.7441Z" fill="url(#paint0_linear)"/>
<path d="M261.413 39.7559C262.198 39.7559 262.832 39.1176 262.832 38.3366C262.832 37.5513 262.194 36.9172 261.413 36.9172C260.627 36.9172 259.993 37.5555 259.993 38.3366C259.989 39.1218 260.627 39.7559 261.413 39.7559Z" fill="white"/>
<path d="M261.412 39.9446C260.526 39.9446 259.804 39.2224 259.804 38.3363C259.804 37.4503 260.526 36.728 261.412 36.728C262.299 36.728 263.021 37.4503 263.021 38.3363C263.021 39.2224 262.299 39.9446 261.412 39.9446C260.522 39.9446 262.299 39.9446 261.412 39.9446ZM261.412 37.1018C260.732 37.1018 260.182 37.656 260.182 38.3321C260.182 39.0124 260.736 39.5625 261.412 39.5625C262.093 39.5625 262.643 39.0082 262.643 38.3321C262.643 37.656 262.093 37.1018 261.412 37.1018C260.732 37.1018 262.093 37.1018 261.412 37.1018Z" fill="#8D008F"/>
<path fill-rule="evenodd" clip-rule="evenodd" d="M245.1 44.7054L245.938 43.8679L252.945 50.8791H269.051V52.0639H252.454L245.1 44.7054Z" fill="url(#paint1_linear)"/>
<path d="M268.971 52.8909C269.755 52.8909 270.39 52.2554 270.39 51.4716C270.39 50.6877 269.755 50.0522 268.971 50.0522C268.187 50.0522 267.552 50.6877 267.552 51.4716C267.552 52.2554 268.187 52.8909 268.971 52.8909Z" fill="white"/>
<path d="M268.971 53.0799C268.085 53.0799 267.363 52.3576 267.363 51.4716C267.363 50.5855 268.085 49.8633 268.971 49.8633C269.857 49.8633 270.579 50.5855 270.579 51.4716C270.579 52.3576 269.857 53.0799 268.971 53.0799C268.081 53.0799 269.857 53.0799 268.971 53.0799ZM268.971 50.2412C268.291 50.2412 267.741 50.7955 267.741 51.4716C267.741 52.1518 268.295 52.7019 268.971 52.7019C269.651 52.7019 270.201 52.1476 270.201 51.4716C270.201 50.7913 269.647 50.2412 268.971 50.2412C268.291 50.2412 269.647 50.2412 268.971 50.2412Z" fill="#8D008F"/>
<path fill-rule="evenodd" clip-rule="evenodd" d="M225.754 56.145H248.557V57.3298H226.241L223.591 59.9543H214.444V58.7695H223.104L225.754 56.145Z" fill="url(#paint2_linear)"/>
<path d="M248.476 58.1568C249.267 58.1568 249.909 57.5213 249.909 56.7374C249.909 55.9536 249.267 55.3181 248.476 55.3181C247.685 55.3181 247.043 55.9536 247.043 56.7374C247.043 57.5213 247.685 58.1568 248.476 58.1568Z" fill="white"/>
<path d="M248.476 58.3457C247.582 58.3457 246.852 57.6235 246.852 56.7374C246.852 55.8514 247.582 55.1292 248.476 55.1292C249.371 55.1292 250.1 55.8514 250.1 56.7374C250.1 57.6235 249.371 58.3457 248.476 58.3457C247.582 58.3457 249.371 58.3457 248.476 58.3457ZM248.476 55.5029C247.789 55.5029 247.234 56.0572 247.234 56.7332C247.234 57.4093 247.793 57.9636 248.476 57.9636C249.163 57.9636 249.718 57.4093 249.718 56.7332C249.718 56.0572 249.163 55.5029 248.476 55.5029C247.789 55.5029 249.163 55.5029 248.476 55.5029Z" fill="#8D008F"/>
<path fill-rule="evenodd" clip-rule="evenodd" d="M223.184 59.7806L224.022 58.9429L227.775 62.6956H233.076V63.8804H227.284L223.184 59.7806Z" fill="url(#paint3_linear)"/>
<path d="M232.997 64.7073C233.782 64.7073 234.416 64.069 234.416 63.288C234.416 62.5027 233.778 61.8687 232.997 61.8687C232.211 61.8687 231.577 62.5069 231.577 63.288C231.577 64.0732 232.211 64.7073 232.997 64.7073Z" fill="white"/>
<path d="M232.996 64.8965C232.11 64.8965 231.388 64.1743 231.388 63.2882C231.388 62.4022 232.11 61.6799 232.996 61.6799C233.883 61.6799 234.605 62.4022 234.605 63.2882C234.605 64.1743 233.883 64.8965 232.996 64.8965C232.11 64.8965 233.883 64.8965 232.996 64.8965ZM232.996 62.0537C232.316 62.0537 231.766 62.608 231.766 63.284C231.766 63.9643 232.32 64.5144 232.996 64.5144C233.677 64.5144 234.227 63.9601 234.227 63.284C234.227 62.608 233.677 62.0537 232.996 62.0537C232.316 62.0537 233.677 62.0537 232.996 62.0537Z" fill="#8D008F"/>
<path fill-rule="evenodd" clip-rule="evenodd" d="M250.925 65.0347H266.964V66.2194H251.416L247.024 70.6128H220.131V69.428H246.533L250.925 65.0347Z" fill="url(#paint4_linear)"/>
<path d="M266.884 67.0506C267.669 67.0506 268.303 66.4123 268.303 65.6312C268.303 64.846 267.665 64.2119 266.884 64.2119C266.099 64.2119 265.465 64.8502 265.465 65.6312C265.465 66.4123 266.099 67.0506 266.884 67.0506Z" fill="white"/>
<path d="M266.884 67.2395C265.998 67.2395 265.276 66.5173 265.276 65.6312C265.276 64.7452 265.998 64.0229 266.884 64.0229C267.77 64.0229 268.492 64.7452 268.492 65.6312C268.492 66.5173 267.77 67.2395 266.884 67.2395C265.998 67.2395 267.77 67.2395 266.884 67.2395ZM266.884 64.3967C266.204 64.3967 265.654 64.951 265.654 65.627C265.654 66.3073 266.208 66.8574 266.884 66.8574C267.564 66.8574 268.114 66.3031 268.114 65.627C268.114 64.9468 267.564 64.3967 266.884 64.3967C266.204 64.3967 267.564 64.3967 266.884 64.3967Z" fill="#8D008F"/>
<path fill-rule="evenodd" clip-rule="evenodd" d="M251.569 33.7578H261.098V32.573H252.059L245.798 26.3162H230.765L225.13 20.6767H219.026V21.8615H224.639L230.274 27.501H245.308L251.569 33.7578Z" fill="url(#paint5_linear)"/>
<path d="M261.018 31.7461C261.804 31.7461 262.438 32.3843 262.438 33.1654C262.438 33.9506 261.799 34.5847 261.018 34.5847C260.233 34.5847 259.599 33.9464 259.599 33.1654C259.595 32.3801 260.233 31.7461 261.018 31.7461Z" fill="white"/>
<path d="M261.018 31.5573C260.132 31.5573 259.41 32.2796 259.41 33.1656C259.41 34.0517 260.132 34.7739 261.018 34.7739C261.904 34.7739 262.627 34.0517 262.627 33.1656C262.627 32.2796 261.904 31.5573 261.018 31.5573C260.128 31.5573 261.904 31.5573 261.018 31.5573ZM261.018 34.4002C260.338 34.4002 259.788 33.8459 259.788 33.1698C259.788 32.4896 260.342 31.9395 261.018 31.9395C261.699 31.9395 262.249 32.4938 262.249 33.1698C262.249 33.8459 261.699 34.4002 261.018 34.4002C260.338 34.4002 261.699 34.4002 261.018 34.4002Z" fill="#8D008F"/>
<path fill-rule="evenodd" clip-rule="evenodd" d="M245.1 26.3798L245.938 27.2173L252.945 20.2061H269.051V19.0213H252.454L245.1 26.3798Z" fill="url(#paint6_linear)"/>
<path d="M268.971 18.1943C269.755 18.1943 270.39 18.8298 270.39 19.6136C270.39 20.3975 269.755 21.033 268.971 21.033C268.187 21.033 267.552 20.3975 267.552 19.6136C267.552 18.8298 268.187 18.1943 268.971 18.1943Z" fill="white"/>
<path d="M268.971 18.0053C268.085 18.0053 267.363 18.7276 267.363 19.6136C267.363 20.4997 268.085 21.2219 268.971 21.2219C269.857 21.2219 270.579 20.4997 270.579 19.6136C270.579 18.7276 269.857 18.0053 268.971 18.0053C268.081 18.0053 269.857 18.0053 268.971 18.0053ZM268.971 20.844C268.291 20.844 267.741 20.2897 267.741 19.6136C267.741 18.9334 268.295 18.3833 268.971 18.3833C269.651 18.3833 270.201 18.9376 270.201 19.6136C270.201 20.2939 269.647 20.844 268.971 20.844C268.291 20.844 269.647 20.844 268.971 20.844Z" fill="#8D008F"/>
<path fill-rule="evenodd" clip-rule="evenodd" d="M224.84 11.626H247.643V10.4412H225.327L222.677 7.8167H219.217V9.00148H222.19L224.84 11.626Z" fill="url(#paint7_linear)"/>
<path d="M247.562 9.61447C248.354 9.61447 248.995 10.2499 248.995 11.0338C248.995 11.8177 248.354 12.4531 247.562 12.4531C246.771 12.4531 246.129 11.8177 246.129 11.0338C246.129 10.2499 246.771 9.61447 247.562 9.61447Z" fill="white"/>
<path d="M247.562 9.42526C246.668 9.42526 245.938 10.1475 245.938 11.0336C245.938 11.9196 246.668 12.6418 247.562 12.6418C248.457 12.6418 249.186 11.9196 249.186 11.0336C249.186 10.1475 248.457 9.42526 247.562 9.42526C246.668 9.42526 248.457 9.42526 247.562 9.42526ZM247.562 12.2681C246.875 12.2681 246.32 11.7138 246.32 11.0378C246.32 10.3617 246.88 9.80739 247.562 9.80739C248.249 9.80739 248.804 10.3617 248.804 11.0378C248.804 11.7138 248.249 12.2681 247.562 12.2681C246.875 12.2681 248.249 12.2681 247.562 12.2681Z" fill="#8D008F"/>
<path fill-rule="evenodd" clip-rule="evenodd" d="M222.009 7.95618L222.847 8.79395L226.6 5.04121H231.901V3.85643H226.109L222.009 7.95618Z" fill="url(#paint8_linear)"/>
<path d="M231.822 3.02951C232.607 3.02951 233.241 3.66779 233.241 4.44884C233.241 5.23409 232.603 5.86816 231.822 5.86816C231.037 5.86816 230.402 5.22989 230.402 4.44884C230.402 3.66359 231.037 3.02951 231.822 3.02951Z" fill="white"/>
<path d="M231.822 2.84054C230.936 2.84054 230.214 3.56281 230.214 4.44884C230.214 5.33487 230.936 6.05713 231.822 6.05713C232.708 6.05713 233.43 5.33487 233.43 4.44884C233.43 3.56281 232.708 2.84054 231.822 2.84054C230.936 2.84054 232.708 2.84054 231.822 2.84054ZM231.822 5.68339C231.142 5.68339 230.591 5.1291 230.591 4.45303C230.591 3.77276 231.146 3.22267 231.822 3.22267C232.502 3.22267 233.052 3.77696 233.052 4.45303C233.052 5.1291 232.502 5.68339 231.822 5.68339C231.142 5.68339 232.502 5.68339 231.822 5.68339Z" fill="#8D008F"/>
<path fill-rule="evenodd" clip-rule="evenodd" d="M250.685 5.69678H266.724V4.512H251.176L246.783 0.11867L207.157 0.0465302L207.158 1.29479L246.293 1.30345L250.685 5.69678Z" fill="url(#paint9_linear)"/>
<path d="M266.644 3.68088C267.429 3.68088 268.063 4.31916 268.063 5.10021C268.063 5.88546 267.425 6.51953 266.644 6.51953C265.859 6.51953 265.224 5.88126 265.224 5.10021C265.224 4.31916 265.859 3.68088 266.644 3.68088Z" fill="white"/>
<path d="M266.644 3.49167C265.758 3.49167 265.036 4.21393 265.036 5.09996C265.036 5.98599 265.758 6.70825 266.644 6.70825C267.53 6.70825 268.252 5.98599 268.252 5.09996C268.252 4.21393 267.53 3.49167 266.644 3.49167C265.758 3.49167 267.53 3.49167 266.644 3.49167ZM266.644 6.33452C265.964 6.33452 265.413 5.78023 265.413 5.10416C265.413 4.42389 265.968 3.87379 266.644 3.87379C267.324 3.87379 267.874 4.42809 267.874 5.10416C267.874 5.78443 267.324 6.33452 266.644 6.33452C265.964 6.33452 267.324 6.33452 266.644 6.33452Z" fill="#8D008F"/>
<path d="M64.2148 0.405762H72.3237C72.8476 0.405762 73.4854 0.433095 74.237 0.483206C74.9887 0.533317 75.6993 0.624427 76.3781 0.751982C77.9543 1.04809 79.4303 1.57653 80.8061 2.33731C82.1819 3.09808 83.3845 4.08208 84.4095 5.28474C85.4345 6.4874 86.2408 7.88595 86.8285 9.47127C87.4162 11.0612 87.7123 12.8059 87.7123 14.7147C87.7123 16.5096 87.4435 18.1632 86.906 19.6802C86.3684 21.1972 85.6304 22.5639 84.6874 23.7711C83.7444 24.9829 82.6238 26.0079 81.3254 26.8461C80.0271 27.6843 78.624 28.2947 77.1298 28.682C76.451 28.8733 75.7221 28.9963 74.9477 29.0464C74.1732 29.0965 73.3259 29.1238 72.4011 29.1238H64.2148V0.405762ZM72.2463 26.5727C73.0662 26.5727 73.827 26.5454 74.5331 26.4953C75.2392 26.4452 75.8907 26.3359 76.492 26.1673C77.7083 25.8621 78.8199 25.3519 79.8267 24.6412C80.8334 23.9305 81.6944 23.0832 82.4188 22.1038C83.1431 21.1243 83.708 20.0173 84.1089 18.7782C84.5143 17.5437 84.7147 16.218 84.7147 14.8104C84.7147 13.2615 84.5052 11.8401 84.0906 10.5555C83.6761 9.26627 83.0839 8.13195 82.3231 7.14339C81.5623 6.1594 80.6466 5.3394 79.5852 4.68341C78.5238 4.03197 77.3484 3.55819 76.0683 3.26208C75.5171 3.13453 74.8885 3.05253 74.1778 3.01153C73.4671 2.97508 72.8248 2.9523 72.2463 2.9523H67.2124V26.5636H72.2463V26.5727Z" fill="#8D008F"/>
<path d="M90.3044 0.405762H107.98V2.96142H93.302V13.1066H107.269V15.6805H93.302V26.5727H107.98V29.1284H90.3044V0.405762Z" fill="#8D008F"/>
<path d="M134.684 29.5702C132.534 29.5702 130.548 29.183 128.73 28.4085C126.913 27.6341 125.346 26.5772 124.034 25.2379C122.722 23.8986 121.688 22.3315 120.94 20.532C120.193 18.7326 119.815 16.8284 119.815 14.8148C119.815 12.7922 120.198 10.8789 120.959 9.07942C121.719 7.27999 122.772 5.71288 124.111 4.37356C125.45 3.03423 127.022 1.97279 128.826 1.18468C130.63 0.39202 132.584 0.000244141 134.684 0.000244141C136.757 0.000244141 138.661 0.369242 140.393 1.10268C142.119 1.84068 143.659 2.83379 145.003 4.09111L143.199 6.14566C142.096 5.148 140.844 4.30067 139.431 3.60823C138.024 2.91579 136.429 2.56956 134.648 2.56956C132.894 2.56956 131.291 2.90212 129.837 3.56723C128.384 4.23233 127.136 5.12522 126.102 6.23677C125.063 7.35287 124.257 8.6512 123.683 10.1363C123.104 11.6214 122.817 13.1794 122.817 14.8057C122.817 16.4594 123.113 18.0174 123.701 19.4843C124.289 20.9511 125.109 22.2404 126.161 23.3565C127.209 24.4726 128.462 25.3563 129.915 26.0078C131.368 26.6592 132.962 26.9872 134.689 26.9872C136.484 26.9872 138.074 26.6592 139.463 26.0078C140.853 25.3563 142.096 24.5546 143.199 23.607L144.889 25.6251C143.518 26.8824 141.982 27.8528 140.279 28.5361C138.575 29.224 136.707 29.5702 134.684 29.5702Z" fill="#8D008F"/>
<path d="M147.791 0.405762H165.466V2.96142H150.788V13.1066H164.755V15.6805H150.788V26.5727H165.466V29.1284H147.791V0.405762Z" fill="#8D008F"/>
<path d="M171.593 29.1284H168.596V0.405762H178.837C179.757 0.405762 180.654 0.474095 181.515 0.615316C182.381 0.756538 183.178 1.01165 183.907 1.3852C185.278 2.06398 186.39 3.07986 187.241 4.4283C188.093 5.78129 188.517 7.36662 188.517 9.18427C188.517 10.4917 188.312 11.6761 187.902 12.7376C187.492 13.799 186.968 14.7147 186.326 15.4755C185.683 16.2362 184.959 16.833 184.144 17.2612C183.328 17.6895 182.513 17.9446 181.693 18.022C182.909 19.8898 184.107 21.7439 185.287 23.5843C186.467 25.4247 187.642 27.2697 188.822 29.1284H185.251C184.098 27.3244 182.95 25.5113 181.802 23.7028C180.654 21.8942 179.506 20.0674 178.354 18.2361V15.6805C179.224 15.6805 179.916 15.6622 180.431 15.6304C180.941 15.5985 181.502 15.4937 182.103 15.3115C182.604 15.1566 183.06 14.8878 183.479 14.5051C183.893 14.1225 184.253 13.6624 184.554 13.1294C184.854 12.5964 185.091 11.995 185.264 11.3254C185.438 10.6557 185.524 9.96327 185.524 9.26172C185.524 7.91783 185.269 6.78806 184.754 5.8724C184.239 4.95674 183.542 4.25063 182.659 3.74952C182.135 3.46708 181.547 3.26664 180.9 3.14364C180.253 3.02064 179.565 2.96142 178.837 2.96142H171.593V29.1284Z" fill="#8D008F"/>
<path fill-rule="evenodd" clip-rule="evenodd" d="M206.029 20.6152C209.366 20.6152 212.071 17.9099 212.071 14.5728C212.071 11.2357 209.366 8.53048 206.029 8.53048C202.692 8.53048 199.987 11.2357 199.987 14.5728C199.987 17.9099 202.692 20.6152 206.029 20.6152ZM206.029 21.8C210.021 21.8 213.256 18.5643 213.256 14.5728C213.256 10.5814 210.021 7.3457 206.029 7.3457C202.038 7.3457 198.802 10.5814 198.802 14.5728C198.802 18.5643 202.038 21.8 206.029 21.8Z" fill="#676BFF"/>
<path fill-rule="evenodd" clip-rule="evenodd" d="M208.323 23.6496C207.589 23.8346 206.821 23.9328 206.029 23.9328C200.86 23.9328 196.669 19.7423 196.669 14.5731C196.669 9.40383 200.86 5.21334 206.029 5.21334C207.21 5.21334 208.339 5.43185 209.379 5.83062L209.997 4.80058C208.772 4.30279 207.433 4.02856 206.029 4.02856C200.206 4.02856 195.485 8.7495 195.485 14.5731C195.485 20.3966 200.206 25.1176 206.029 25.1176C206.984 25.1176 207.908 24.9908 208.788 24.7531L208.323 23.6496ZM211.012 22.4976L211.568 23.5475C213.923 22.0907 215.662 19.7325 216.304 16.9544L215.144 16.7102C214.576 19.1399 213.062 21.2056 211.012 22.4976ZM215.315 13.3883H216.508C216.183 10.4817 214.676 7.93225 212.48 6.23117L211.865 7.25523C213.722 8.7379 215.002 10.9124 215.315 13.3883Z" fill="#676BFF"/>
<path fill-rule="evenodd" clip-rule="evenodd" d="M201.137 3.53078C202.262 3.0069 203.483 2.68345 204.804 2.56956H204.809V0.000244141C203.183 0.118688 201.629 0.487686 200.158 1.11635C198.354 1.8999 196.782 2.95678 195.443 4.29611C194.103 5.63544 193.042 7.20254 192.254 9.00198C191.466 10.8014 191.074 12.7238 191.074 14.7738C191.074 16.8648 191.461 18.8009 192.236 20.5867C193.01 22.3725 194.067 23.9305 195.406 25.2561C196.741 26.5818 198.317 27.6159 200.121 28.3584C201.593 28.9598 203.155 29.3197 204.809 29.4335V26.8779C203.488 26.7594 202.258 26.4497 201.119 25.9349C199.67 25.2789 198.431 24.4042 197.392 23.3018C196.354 22.1994 195.538 20.9147 194.951 19.4478C194.363 17.9809 194.067 16.4229 194.067 14.7693C194.067 13.143 194.363 11.585 194.951 10.0999C195.543 8.61476 196.354 7.31643 197.392 6.20032C198.427 5.08877 199.675 4.19589 201.137 3.53078Z" fill="#8D008F"/>
<path fill-rule="evenodd" clip-rule="evenodd" d="M216.712 20.0811L219.026 21.8611C219.273 21.4164 219.502 20.9555 219.711 20.4782C220.499 18.6787 220.891 16.7563 220.891 14.7063C220.891 12.6153 220.503 10.6792 219.729 8.89346C219.57 8.52588 219.398 8.1679 219.215 7.81964L216.574 9.05214C216.649 9.20192 216.721 9.35377 216.791 9.50777C216.868 9.67999 216.943 9.85482 217.014 10.0324C217.601 11.4992 217.898 13.0572 217.898 14.7109C217.898 16.3372 217.601 17.8952 217.014 19.3803C216.919 19.6187 216.818 19.8523 216.712 20.0811ZM211.843 1.12172C213.368 1.7494 214.73 2.58534 215.921 3.62965L213.968 5.58326C213.062 4.75617 212.023 4.07851 210.846 3.54525C209.707 3.0305 208.477 2.72071 207.156 2.60229V0.0466309C208.809 0.160538 210.372 0.520425 211.843 1.12172Z" fill="#8D008F"/>
<path fill-rule="evenodd" clip-rule="evenodd" d="M211.843 28.3583C213.368 27.7306 214.73 26.8946 215.921 25.8503L213.968 23.8967C213.062 24.7238 212.023 25.4015 210.846 25.9347C209.707 26.4495 208.477 26.7593 207.156 26.8777V29.4333C208.809 29.3194 210.372 28.9596 211.843 28.3583Z" fill="#8D008F"/>
<path fill-rule="evenodd" clip-rule="evenodd" d="M230.385 15.0791H241.172V16.5008H230.974L225.719 21.7553L224.714 20.75L230.385 15.0791Z" fill="url(#paint10_linear)"/>
<path d="M241.975 14.3706C242.759 14.3706 243.395 15.006 243.395 15.7899C243.395 16.5738 242.759 17.2092 241.975 17.2092C241.192 17.2092 240.556 16.5738 240.556 15.7899C240.556 15.006 241.192 14.3706 241.975 14.3706Z" fill="white"/>
<path d="M241.976 14.1814C241.09 14.1814 240.367 14.9036 240.367 15.7897C240.367 16.6757 241.09 17.3979 241.976 17.3979C242.862 17.3979 243.584 16.6757 243.584 15.7897C243.584 14.9036 242.862 14.1814 241.976 14.1814C241.085 14.1814 242.862 14.1814 241.976 14.1814ZM241.976 17.02C241.295 17.02 240.745 16.4657 240.745 15.7897C240.745 15.1094 241.3 14.5593 241.976 14.5593C242.656 14.5593 243.206 15.1136 243.206 15.7897C243.206 16.4699 242.652 17.02 241.976 17.02C241.295 17.02 242.652 17.02 241.976 17.02Z" fill="#8D008F"/>
<defs>
<linearGradient id="paint0_linear" x1="219.693" y1="50.1656" x2="270.151" y2="38.37" gradientUnits="userSpaceOnUse">
<stop stop-color="#8D008F"/>
<stop offset="1" stop-color="#676BFF"/>
</linearGradient>
<linearGradient id="paint1_linear" x1="245.661" y1="44.8829" x2="275.056" y2="51.3917" gradientUnits="userSpaceOnUse">
<stop stop-color="#793ACB"/>
<stop offset="1" stop-color="#676BFF"/>
</linearGradient>
<linearGradient id="paint2_linear" x1="215.161" y1="59.4038" x2="261.158" y2="56.8357" gradientUnits="userSpaceOnUse">
<stop stop-color="#8D008F"/>
<stop offset="1" stop-color="#676BFF"/>
</linearGradient>
<linearGradient id="paint3_linear" x1="222.423" y1="58.7739" x2="236.7" y2="64.6528" gradientUnits="userSpaceOnUse">
<stop stop-color="#8711A1"/>
<stop offset="1" stop-color="#676BFF"/>
</linearGradient>
<linearGradient id="paint4_linear" x1="219.064" y1="69.3643" x2="281.842" y2="65.795" gradientUnits="userSpaceOnUse">
<stop stop-color="#8D008F"/>
<stop offset="1" stop-color="#676BFF"/>
</linearGradient>
<linearGradient id="paint5_linear" x1="219.299" y1="21.3363" x2="269.757" y2="33.1319" gradientUnits="userSpaceOnUse">
<stop stop-color="#8D008F"/>
<stop offset="1" stop-color="#676BFF"/>
</linearGradient>
<linearGradient id="paint6_linear" x1="245.661" y1="26.2023" x2="275.056" y2="19.6935" gradientUnits="userSpaceOnUse">
<stop stop-color="#793ACB"/>
<stop offset="1" stop-color="#676BFF"/>
</linearGradient>
<linearGradient id="paint7_linear" x1="219.029" y1="8.06722" x2="260.244" y2="10.9302" gradientUnits="userSpaceOnUse">
<stop stop-color="#8D008F"/>
<stop offset="1" stop-color="#676BFF"/>
</linearGradient>
<linearGradient id="paint8_linear" x1="222.567" y1="8.36613" x2="235.525" y2="3.08403" gradientUnits="userSpaceOnUse">
<stop stop-color="#8A0898"/>
<stop offset="1" stop-color="#676BFF"/>
</linearGradient>
<linearGradient id="paint9_linear" x1="218.823" y1="1.36728" x2="281.601" y2="4.93659" gradientUnits="userSpaceOnUse">
<stop stop-color="#8D008F"/>
<stop offset="1" stop-color="#676BFF"/>
</linearGradient>
<linearGradient id="paint10_linear" x1="225.572" y1="21.2527" x2="242.41" y2="16.3392" gradientUnits="userSpaceOnUse">
<stop stop-color="#890C9B"/>
<stop offset="1" stop-color="#793ACC"/>
</linearGradient>
</defs>
</svg>
